<svg xmlns="http://www.w3.org/2000/svg" viewBox="0 0 1254 1254">
<rect width="1254" height="1254" fill="#0b0f16"/>
<path d="M908,724 L889,729 L877,735 L854,755 L839,783 L835,803 L835,818 L840,840 L846,853 L859,871 L880,887 L897,894 L928,897 L947,893 L964,885 L987,865 L994,855 L1003,833 L1006,803 L1003,787 L996,769 L987,755 L973,741 L946,727 L933,724 Z" fill="#2ddac8"/>
<path d="M804,361 L777,354 L758,354 L733,360 L718,368 L706,378 L696,390 L687,407 L531,804 L528,834 L532,852 L549,880 L566,891 L579,896 L601,900 L619,900 L639,896 L665,882 L682,864 L692,845 L844,464 L849,446 L849,419 L838,391 L822,372 Z" fill="#2ddac8"/>
<path d="M318,520 L216,778 L208,805 L208,824 L211,838 L224,864 L245,883 L259,890 L280,895 L305,894 L324,888 L344,875 L356,862 L366,845 L416,719 L407,735 L406,728 L409,725 L407,726 L394,716 L393,713 L396,711 L388,708 L390,706 L388,704 L389,699 L387,700 L386,695 L380,692 L378,684 L377,686 L373,684 L376,683 L376,679 L371,678 L374,676 L366,671 L370,670 L364,666 L365,663 L361,661 L356,652 L354,654 L351,650 L354,649 L352,647 L356,647 L350,640 L353,638 L351,634 L350,637 L347,637 L345,631 L342,630 L345,628 L342,629 L342,627 L334,624 L336,621 L339,622 L332,616 L338,615 L336,613 L332,616 L329,615 L332,611 L326,610 L326,607 L331,608 L327,606 L327,603 L322,598 L324,596 L319,596 L322,593 L318,594 L312,588 L317,587 L310,587 L315,575 L314,573 L312,575 L311,571 L308,574 L304,571 L308,568 L304,563 L307,561 L305,560 L304,562 L303,559 L305,556 L306,558 L305,554 Z" fill="#0e69bb"/>
<path d="M426,354 L399,364 L383,376 L371,390 L360,413 L359,444 L368,472 L516,834 L518,826 L510,819 L511,812 L514,809 L517,811 L517,804 L520,803 L518,801 L521,794 L525,796 L523,794 L526,791 L525,788 L527,786 L525,785 L527,783 L525,785 L524,781 L527,778 L527,772 L530,770 L527,771 L526,769 L530,766 L528,765 L531,760 L529,757 L532,757 L532,754 L529,754 L533,749 L532,746 L536,744 L533,742 L534,739 L536,741 L537,739 L534,736 L537,733 L538,735 L541,729 L539,728 L541,717 L538,716 L543,716 L543,713 L546,713 L546,700 L548,696 L550,698 L547,694 L551,694 L553,679 L555,679 L556,674 L560,671 L559,667 L563,667 L563,661 L557,660 L564,653 L562,652 L565,649 L563,648 L566,645 L567,647 L570,645 L565,646 L562,644 L572,642 L571,640 L568,643 L566,640 L571,638 L572,635 L573,637 L574,635 L576,636 L572,633 L575,631 L578,633 L576,632 L579,629 L577,628 L579,627 L577,620 L579,621 L580,614 L595,601 L595,597 L602,615 L603,612 L522,404 L510,383 L494,368 L478,359 L454,353 Z" fill="#0e69bb"/>
<path d="M521,795 L520,800 L518,800 L521,802 L518,804 L518,811 L515,812 L514,810 L511,813 L513,813 L511,819 L519,826 L518,828 L516,827 L518,832 L515,833 L517,833 L517,838 L519,838 L518,840 L520,840 L519,842 L530,861 L548,880 L535,860 L534,862 L532,859 L534,857 L530,849 L528,835 L528,840 L526,840 L524,827 L528,802 L525,804 L522,801 L523,797 Z" fill="#098a94"/>
<path d="M850,421 L852,443 L850,443 L850,439 L851,451 L844,471 L847,482 L842,487 L844,489 L842,490 L844,498 L841,500 L841,508 L838,512 L840,513 L836,520 L836,527 L832,530 L834,533 L832,533 L832,538 L828,544 L828,553 L826,555 L828,556 L824,560 L826,561 L823,565 L823,575 L819,581 L821,588 L818,590 L820,592 L818,593 L819,597 L817,600 L820,606 L815,617 L818,623 L815,626 L817,631 L814,635 L816,638 L812,637 L817,650 L812,657 L816,661 L814,662 L816,666 L814,667 L816,670 L814,678 L818,679 L816,680 L828,699 L821,701 L802,694 L813,699 L831,703 L860,701 L888,688 L902,675 L912,660 L918,645 L918,635 L920,634 L918,607 L915,605 L916,602 L913,599 L913,594 L911,594 L910,585 L908,586 L906,574 L905,576 L904,569 L902,569 L903,566 L901,566 L902,563 L900,563 L901,560 L899,560 L900,557 L897,555 L898,552 L896,552 L896,546 L893,544 L892,535 L890,536 L890,530 L888,530 L887,522 L885,522 L885,516 L883,516 L882,508 L880,508 L881,505 L879,505 L879,500 L877,500 L878,497 L876,497 L874,486 L872,486 L871,478 L869,477 Z" fill="#098a94"/>
<path d="M595,598 L596,601 L585,611 L584,608 L585,612 L581,614 L579,622 L578,620 L580,627 L575,628 L575,630 L580,629 L573,633 L576,635 L563,644 L566,646 L563,652 L565,653 L558,660 L564,661 L564,667 L560,667 L561,671 L557,674 L552,684 L553,691 L548,694 L551,698 L549,699 L548,697 L546,699 L546,706 L544,704 L548,710 L544,713 L543,717 L539,716 L542,717 L540,728 L536,729 L536,732 L538,731 L540,734 L535,736 L535,738 L538,738 L536,742 L533,739 L537,744 L531,748 L533,747 L534,749 L529,755 L531,754 L533,757 L530,757 L532,760 L529,765 L531,766 L527,769 L529,771 L528,778 L525,781 L525,784 L528,786 L524,794 L526,796 L524,801 L525,803 L529,802 L526,817 L527,840 L526,820 L531,799 L543,771 L542,768 L544,768 L545,761 L547,761 L546,758 L549,756 L548,753 L551,751 L551,745 L555,741 L555,736 L557,736 L556,733 L558,733 L557,730 L560,728 L559,725 L561,726 L560,723 L562,723 L562,718 L564,718 L564,713 L566,713 L565,710 L568,708 L568,702 L570,703 L569,700 L571,700 L571,695 L573,695 L572,692 L575,690 L574,687 L577,685 L579,675 L581,675 L580,672 L583,670 L582,667 L585,665 L584,662 L586,662 L585,660 L589,655 L588,653 L591,650 L604,614 L601,615 Z" fill="#0a5a91"/>
<path d="M323,514 L323,519 L320,522 L317,521 L318,524 L315,526 L315,532 L313,535 L312,533 L312,540 L309,542 L308,548 L307,546 L308,550 L304,561 L308,569 L306,571 L302,564 L300,571 L303,573 L300,571 L301,568 L308,573 L311,570 L312,574 L310,576 L315,573 L316,576 L313,576 L315,579 L311,584 L313,585 L311,587 L314,589 L313,591 L315,590 L318,593 L316,594 L322,592 L320,596 L325,596 L323,598 L326,601 L324,602 L328,603 L327,605 L325,604 L332,608 L328,609 L322,605 L327,610 L333,611 L332,613 L326,612 L335,616 L340,622 L335,624 L343,627 L339,631 L344,626 L346,628 L343,630 L346,631 L347,636 L351,635 L354,638 L351,640 L355,645 L354,647 L352,646 L355,649 L352,650 L354,655 L356,651 L358,653 L357,658 L361,657 L362,661 L366,663 L365,666 L370,669 L367,671 L375,676 L372,678 L377,679 L376,684 L372,682 L381,688 L381,692 L383,692 L387,699 L390,699 L389,704 L391,706 L389,708 L394,708 L397,711 L393,714 L407,725 L408,723 L410,725 L407,728 L408,734 L414,721 L415,723 L414,720 L417,718 L416,715 L419,713 L419,707 L423,703 L422,700 L424,700 L423,698 L438,665 L440,655 L439,659 L438,657 L434,660 L430,657 L429,660 L426,659 L426,655 L420,652 L422,649 L419,647 L417,649 L420,652 L418,654 L414,650 L416,646 L410,644 L413,639 L409,637 L405,641 L404,638 L407,635 L405,636 L398,632 L400,631 L398,630 L400,627 L396,627 L398,621 L392,623 L392,614 L388,613 L386,616 L382,614 L385,609 L382,609 L382,612 L380,610 L382,606 L378,605 L380,603 L373,601 L375,598 L378,601 L380,599 L377,599 L376,595 L375,597 L372,595 L375,591 L370,594 L372,591 L370,590 L371,587 L366,589 L366,580 L363,583 L363,581 L359,580 L362,577 L357,578 L360,575 L354,572 L357,570 L355,566 L354,568 L351,566 L354,563 L347,563 L349,561 L346,557 L348,551 L346,550 L345,552 L344,548 L338,545 L340,543 L335,544 L338,541 L334,540 L338,537 L336,535 L337,532 L332,531 L333,524 L330,528 L328,527 L329,523 L326,521 L327,519 L322,518 Z" fill="#0a5a91"/>
<path d="M850,445 L844,470 L841,473 L842,475 L840,475 L841,477 L836,485 L836,490 L834,490 L834,495 L831,497 L832,500 L830,500 L830,505 L828,505 L828,510 L826,510 L827,513 L824,515 L820,530 L818,530 L819,533 L816,535 L817,538 L814,546 L810,550 L811,553 L809,553 L808,561 L804,565 L804,571 L783,625 L785,622 L787,625 L786,637 L782,639 L785,643 L782,646 L784,648 L782,649 L784,651 L782,655 L784,660 L779,668 L775,669 L773,666 L789,686 L799,693 L803,693 L803,695 L806,694 L817,699 L815,700 L827,699 L824,696 L826,693 L819,687 L818,681 L814,677 L814,665 L817,664 L815,662 L817,661 L811,657 L816,651 L815,646 L817,646 L813,644 L812,638 L815,638 L813,634 L817,632 L817,628 L816,631 L814,630 L814,626 L817,623 L814,617 L817,616 L817,607 L819,606 L816,600 L819,598 L817,593 L820,588 L818,581 L822,575 L824,559 L827,558 L829,553 L826,550 L827,544 L831,536 L833,536 L831,533 L833,533 L832,531 L837,521 L835,520 L839,513 L840,500 L843,498 L841,495 L843,494 L843,489 L841,487 L846,482 L845,478 L847,478 L843,471 L849,456 Z" fill="#0a5a91"/>
</svg>